<svg width="79" height="29" viewBox="0 0 79 29" fill="none" xmlns="http://www.w3.org/2000/svg">
<rect width="79" height="29" rx="14.5" fill="#C1C1C1"/>
<rect x="50" y="2" width="25" height="25" rx="12.5" fill="#939292"/>
<path d="M13.2374 9.00533H13.5098C12.6193 9.80114 12.0468 10.8719 11.892 12.0315C11.7373 13.1911 12.0099 14.3662 12.6625 15.3525C13.3152 16.3388 14.3065 17.074 15.4644 17.4303C16.6222 17.7866 17.8732 17.7414 19 17.3027C18.5666 18.3057 17.8581 19.1767 16.9503 19.8228C16.0425 20.469 14.9693 20.866 13.8452 20.9716C12.7212 21.0772 11.5884 20.8873 10.5677 20.4223C9.54708 19.9572 8.67683 19.2345 8.04981 18.3311C7.42278 17.4277 7.06251 16.3775 7.00743 15.2926C6.95234 14.2078 7.2045 13.1289 7.73702 12.171C8.26953 11.2132 9.06242 10.4123 10.0311 9.85382C10.9998 9.29536 12.108 9.00026 13.2374 9V9.00533Z" stroke="white" stroke-width="2" stroke-linecap="round" stroke-linejoin="round"/>
<path d="M63 19.2C65.3196 19.2 67.2 17.3196 67.2 15C67.2 12.6804 65.3196 10.8 63 10.8C60.6805 10.8 58.8 12.6804 58.8 15C58.8 17.3196 60.6805 19.2 63 19.2Z" stroke="white" stroke-width="1.5"/>
<path d="M63 8V8.7M63 21.3V22M70 15H69.3M56.7 15H56" stroke="white" stroke-width="1.5" stroke-linecap="round"/>
<path opacity="0.5" d="M67.949 10.051L67.6746 10.3261M58.3254 19.6746L58.0503 19.9497M67.949 19.949L67.6746 19.6739M58.3254 10.3254L58.0503 10.0503" stroke="white" stroke-width="1.5" stroke-linecap="round"/>
</svg>
