<svg width="79" height="29" viewBox="0 0 79 29" fill="none" xmlns="http://www.w3.org/2000/svg">
<rect width="79" height="29" rx="14.5" fill="#2B2B2B"/>
<rect x="3" y="2" width="25" height="25" rx="12.5" fill="#020202"/>
<path d="M16.2374 9.00533H16.5098C15.6193 9.80114 15.0468 10.8719 14.892 12.0315C14.7373 13.1911 15.0099 14.3662 15.6625 15.3525C16.3152 16.3388 17.3065 17.074 18.4644 17.4303C19.6222 17.7866 20.8732 17.7414 22 17.3027C21.5666 18.3057 20.8581 19.1767 19.9503 19.8228C19.0425 20.469 17.9693 20.866 16.8452 20.9716C15.7212 21.0772 14.5884 20.8873 13.5677 20.4223C12.5471 19.9572 11.6768 19.2345 11.0498 18.3311C10.4228 17.4277 10.0625 16.3775 10.0074 15.2926C9.95234 14.2078 10.2045 13.1289 10.737 12.171C11.2695 11.2132 12.0624 10.4123 13.0311 9.85382C13.9998 9.29536 15.108 9.00026 16.2374 9V9.00533Z" stroke="white" stroke-width="2" stroke-linecap="round" stroke-linejoin="round"/>
<path d="M63 19.2C65.3196 19.2 67.2 17.3196 67.2 15C67.2 12.6804 65.3196 10.8 63 10.8C60.6805 10.8 58.8 12.6804 58.8 15C58.8 17.3196 60.6805 19.2 63 19.2Z" stroke="white" stroke-width="1.5"/>
<path d="M63 8V8.7M63 21.3V22M70 15H69.3M56.7 15H56" stroke="white" stroke-width="1.5" stroke-linecap="round"/>
<path opacity="0.5" d="M67.949 10.051L67.6746 10.3261M58.3254 19.6746L58.0503 19.9497M67.949 19.949L67.6746 19.6739M58.3254 10.3254L58.0503 10.0503" stroke="white" stroke-width="1.5" stroke-linecap="round"/>
</svg>
